<svg class="border shadow-md" viewBox="0 0 938.6666666666667 528" style="width: 938.667px; height: 528px;" xmlns="http://www.w3.org/2000/svg" preserveAspectRatio="none"><rect class="bg" id="bg" x="0" y="0" width="938.6666666666667" height="528" fill="#ffffff"/><polygon points="6,2 10,4 10,8 6,10 2,8 2,4" stroke="#FFADAD" fill="#1e1503" stroke-width="10" transform="translate(-67, 553) rotate(297 50 50) scale(19)" stroke-linejoin="round"/><polygon points="6,2 10,4 10,8 6,10 2,8 2,4" stroke="#FFD6A5" fill="none" stroke-width="16" transform="translate(784, -70.99999999999999) rotate(172 50 50) scale(17.599999999999998)" stroke-linejoin="round"/><rect x="0" y="0" width="10" height="6" rx="1" stroke="none" stroke-width="10" fill="#3c845d" transform="translate(497, 419) rotate(189 50 50) scale(17.599999999999998)"/><rect x="0" y="0" width="10" height="6" rx="1" stroke="#d09008" stroke-width="16" fill="none" transform="translate(-62, -82) rotate(177 50 50) scale(24)"/><rect x="0" y="0" width="10" height="6" rx="1" stroke="#5950b6" stroke-width="16" fill="none" transform="translate(783, 341) rotate(272 50 50) scale(17.599999999999998)"/><path d="M9,7.5Q8,9,6.5,9.5Q5,10,4,8.5Q3,7,2.5,5.5Q2,4,3.5,2.5Q5,1,7.5,1Q10,1,10,3.5Q10,6,9,7.5Z" stroke="#1bbfc0" fill="none" transform="translate(477, 814) rotate(260 50 50) scale(17.599999999999998)"/><polygon points="0,10 10,10 5,0" stroke="none" fill="#3763ca" stroke-width="10" stroke-linejoin="round" transform="translate(480, 344) rotate(185 50 50) scale(25)"/><path d="M8.5,7Q8,8,7,8.5Q6,9,4.5,10Q3,11,3,9Q3,7,2.5,5.5Q2,4,2.5,2.5Q3,1,5,1Q7,1,8,2.5Q9,4,9,5Q9,6,8.5,7Z" stroke="#96f6d2" fill="none" transform="translate(596, 594) rotate(81 50 50) scale(17.599999999999998)"/></svg>